<svg width="21" height="21" viewBox="0 0 21 21" fill="none" xmlns="http://www.w3.org/2000/svg">
<path fill-rule="evenodd" clip-rule="evenodd" d="M10 21V19.9871C5.1513 19.7356 1.26435 15.8487 1.01293 11H0V10H1.01293C1.26435 5.1513 5.1513 1.26435 10 1.01293V0H11V1.01293C15.8487 1.26435 19.7356 5.1513 19.9871 10H21V11H19.9871C19.7356 15.8487 15.8487 19.7356 11 19.9871V21H10ZM18.9855 10C18.7363 5.70375 15.2962 2.26367 11 2.01446V3.0164C14.7438 3.26282 17.7372 6.25625 17.9836 10H18.9855ZM17.9836 11H18.9855C18.7363 15.2962 15.2962 18.7363 11 18.9855V17.9836C14.7438 17.7372 17.7372 14.7438 17.9836 11ZM16.9811 10C16.7383 6.8088 14.1912 4.2617 11 4.01894V10H16.9811ZM11 11H16.9811C16.7383 14.1912 14.1912 16.7383 11 16.9811V11ZM10 10V4.01894C6.8088 4.2617 4.2617 6.8088 4.01894 10H10ZM4.01894 11H10V16.9811C6.8088 16.7383 4.2617 14.1912 4.01894 11ZM3.0164 10C3.26282 6.25625 6.25625 3.26282 10 3.0164V2.01446C5.70375 2.26367 2.26367 5.70375 2.01446 10H3.0164ZM2.01446 11H3.0164C3.26282 14.7438 6.25625 17.7372 10 17.9836V18.9855C5.70375 18.7363 2.26367 15.2962 2.01446 11Z" fill="#3BFD91"/>
<path d="M3.98874 14.17C3.36229 14.17 3 14.4525 3 14.4525C4.69499 15.4412 4.4125 16.2887 5.25999 17.2775C6.10748 18.2663 8.22625 18.125 8.22625 18.125V19.9613V20.7422C8.22625 20.7422 9 21 11 21C12 21 13.5938 20.5352 13.5938 20.5352V19.9613V16.43C13.5938 15.5825 12.8875 15.0175 12.8875 15.0175C12.8875 15.0175 17.69 14.17 17.69 9.9325C17.69 8.37875 16.56 6.96625 16.56 6.96625C16.56 6.96625 16.882 6.02796 16.8425 5.4125C16.8057 4.83778 16.4188 4 16.4188 4C16.4188 4 15.3445 4.1405 14.7237 4.42375C14.1809 4.67144 13.4525 5.27125 13.4525 5.27125C13.4525 5.27125 11.9271 4.69362 10.91 4.70625C9.94672 4.71822 8.50875 5.27125 8.50875 5.27125C8.50875 5.27125 7.68948 4.67253 7.09624 4.42375C6.46702 4.15988 5.40125 4 5.40125 4C5.40125 4 4.99201 4.83678 4.9775 5.4125C4.96165 6.04124 5.40125 6.96625 5.40125 6.96625C5.40125 6.96625 4.12999 7.81375 4.13 9.9325C4.13 14.369 8.9325 15.0175 8.9325 15.0175C8.9325 15.1587 8.3675 16.43 7.09625 16.43C5.54249 16.43 4.97749 14.17 3.98874 14.17Z" fill="#191A19"/>
</svg>
